<?xml version="1.0" encoding="UTF-8"?>
<svg xmlns="http://www.w3.org/2000/svg" xmlns:xlink="http://www.w3.org/1999/xlink" width="0" height="0">
<defs>
<symbol viewBox="0 0 24 24" id="asterisk"><path fill="none" stroke="currentColor" stroke-linecap="round" stroke-linejoin="round" stroke-width="2" d="M12 6v12m5.196-9L6.804 15m0-6l10.392 6"></path></symbol>
<symbol viewBox="0 0 24 24" id="circle-x"><g fill="none" stroke="currentColor" stroke-linecap="round" stroke-linejoin="round" stroke-width="2"><circle cx="12" cy="12" r="10"></circle><path d="m15 9l-6 6m0-6l6 6"></path></g></symbol>
<symbol viewBox="0 0 24 24" id="house"><g fill="none" stroke="currentColor" stroke-linecap="round" stroke-linejoin="round" stroke-width="2"><path d="M15 21v-8a1 1 0 0 0-1-1h-4a1 1 0 0 0-1 1v8"></path><path d="M3 10a2 2 0 0 1 .709-1.528l7-5.999a2 2 0 0 1 2.582 0l7 5.999A2 2 0 0 1 21 10v9a2 2 0 0 1-2 2H5a2 2 0 0 1-2-2z"></path></g></symbol>
<symbol viewBox="0 0 24 24" id="info"><g fill="none" stroke="currentColor" stroke-linecap="round" stroke-linejoin="round" stroke-width="2"><circle cx="12" cy="12" r="10"></circle><path d="M12 16v-4m0-4h.01"></path></g></symbol>
<symbol viewBox="0 0 24 24" id="loader"><path fill="none" stroke="currentColor" stroke-linecap="round" stroke-linejoin="round" stroke-width="2" d="M12 2v4m4.2 1.8l2.9-2.9M18 12h4m-5.8 4.2l2.9 2.9M12 18v4m-7.1-2.9l2.9-2.9M2 12h4M4.9 4.9l2.9 2.9"></path></symbol>
<symbol viewBox="0 0 24 24" fill="none" id="upload">
  <path d="M14 2H6C4.9 2 4 2.9 4 4V20C4 21.1 4.89 22 5.99 22H18C19.1 22 20 21.1 20 20V8L14 2Z" stroke="currentColor" stroke-width="2" stroke-linecap="round" stroke-linejoin="round"></path>
  <path d="M14 2V8H20" stroke="currentColor" stroke-width="2" stroke-linecap="round" stroke-linejoin="round"></path>
  <path d="M12 18V12" stroke="currentColor" stroke-width="2" stroke-linecap="round" stroke-linejoin="round"></path>
  <path d="M9 15L12 12L15 15" stroke="currentColor" stroke-width="2" stroke-linecap="round" stroke-linejoin="round"></path>
</symbol>
</defs>
</svg>
